<mxfile host="app.diagrams.net" agent="Mozilla/5.0 (Windows NT 10.0; Win64; x64) AppleWebKit/537.36 (KHTML, like Gecko) Chrome/141.0.0.0 Safari/537.36" version="28.2.7">
  <diagram name="Tournament System - UML Class Diagram" id="tKy9KOiioyH30LHpttdy">
    <mxGraphModel dx="1733" dy="930" grid="1" gridSize="10" guides="1" tooltips="1" connect="1" arrows="1" fold="1" page="1" pageScale="1" pageWidth="827" pageHeight="1169" math="0" shadow="0">
      <root>
        <mxCell id="0" />
        <mxCell id="1" parent="0" />
        <mxCell id="hz81aAkB1o-WUuTX70cf-1" value="Tournament State Machine - Improved Design" style="text;html=1;strokeColor=none;fillColor=none;align=center;verticalAlign=middle;whiteSpace=wrap;rounded=0;fontSize=24;fontStyle=1;" vertex="1" parent="1">
          <mxGeometry x="690" y="680" width="800" height="40" as="geometry" />
        </mxCell>
        <mxCell id="hz81aAkB1o-WUuTX70cf-2" value="Setup" style="rounded=1;whiteSpace=wrap;html=1;fillColor=#dae8fc;strokeColor=#6c8ebf;fontSize=16;fontStyle=1;" vertex="1" parent="1">
          <mxGeometry x="470" y="780" width="200" height="80" as="geometry" />
        </mxCell>
        <mxCell id="hz81aAkB1o-WUuTX70cf-3" value="• Create tournament&#xa;• Add/remove teams&#xa;• IsRegistrationOpen = true" style="text;html=1;strokeColor=none;fillColor=none;align=left;verticalAlign=top;whiteSpace=wrap;fontSize=10;" vertex="1" parent="1">
          <mxGeometry x="470" y="865" width="200" height="50" as="geometry" />
        </mxCell>
        <mxCell id="hz81aAkB1o-WUuTX70cf-4" value="SeedingGroups" style="rounded=1;whiteSpace=wrap;html=1;fillColor=#fff2cc;strokeColor=#d6b656;fontSize=16;fontStyle=1;" vertex="1" parent="1">
          <mxGeometry x="750" y="780" width="200" height="80" as="geometry" />
        </mxCell>
        <mxCell id="hz81aAkB1o-WUuTX70cf-5" value="⚠️ TRANSITION STATE&#xa;• Backend seeds groups&#xa;• Generate matches&#xa;• Generate games&#xa;• User cannot interact" style="text;html=1;strokeColor=none;fillColor=none;align=left;verticalAlign=top;whiteSpace=wrap;fontSize=10;" vertex="1" parent="1">
          <mxGeometry x="750" y="865" width="200" height="70" as="geometry" />
        </mxCell>
        <mxCell id="hz81aAkB1o-WUuTX70cf-6" value="GroupsInProgress" style="rounded=1;whiteSpace=wrap;html=1;fillColor=#d5e8d4;strokeColor=#82b366;fontSize=16;fontStyle=1;" vertex="1" parent="1">
          <mxGeometry x="1030" y="780" width="200" height="80" as="geometry" />
        </mxCell>
        <mxCell id="hz81aAkB1o-WUuTX70cf-7" value="✅ ACTIVE STATE&#xa;• Users set match scores&#xa;• Group standings update&#xa;• Wait for all groups done" style="text;html=1;strokeColor=none;fillColor=none;align=left;verticalAlign=top;whiteSpace=wrap;fontSize=10;" vertex="1" parent="1">
          <mxGeometry x="1030" y="865" width="200" height="60" as="geometry" />
        </mxCell>
        <mxCell id="hz81aAkB1o-WUuTX70cf-8" value="GroupsCompleted" style="rounded=1;whiteSpace=wrap;html=1;fillColor=#e1d5e7;strokeColor=#9673a6;fontSize=16;fontStyle=1;" vertex="1" parent="1">
          <mxGeometry x="1310" y="780" width="200" height="80" as="geometry" />
        </mxCell>
        <mxCell id="hz81aAkB1o-WUuTX70cf-9" value="⏸️ WAITING STATE&#xa;• All groups finished&#xa;• Review results&#xa;• Admin decides when&#xa;  to start bracket" style="text;html=1;strokeColor=none;fillColor=none;align=left;verticalAlign=top;whiteSpace=wrap;fontSize=10;" vertex="1" parent="1">
          <mxGeometry x="1310" y="865" width="200" height="70" as="geometry" />
        </mxCell>
        <mxCell id="hz81aAkB1o-WUuTX70cf-10" value="SeedingBracket" style="rounded=1;whiteSpace=wrap;html=1;fillColor=#fff2cc;strokeColor=#d6b656;fontSize=16;fontStyle=1;" vertex="1" parent="1">
          <mxGeometry x="1310" y="1040" width="200" height="80" as="geometry" />
        </mxCell>
        <mxCell id="hz81aAkB1o-WUuTX70cf-11" value="⚠️ TRANSITION STATE&#xa;• Rank teams&#xa;• Pair teams&#xa;• Generate bracket matches&#xa;• Generate games" style="text;html=1;strokeColor=none;fillColor=none;align=left;verticalAlign=top;whiteSpace=wrap;fontSize=10;" vertex="1" parent="1">
          <mxGeometry x="1310" y="1125" width="200" height="70" as="geometry" />
        </mxCell>
        <mxCell id="hz81aAkB1o-WUuTX70cf-12" value="BracketInProgress" style="rounded=1;whiteSpace=wrap;html=1;fillColor=#d5e8d4;strokeColor=#82b366;fontSize=16;fontStyle=1;" vertex="1" parent="1">
          <mxGeometry x="1030" y="1040" width="200" height="80" as="geometry" />
        </mxCell>
        <mxCell id="hz81aAkB1o-WUuTX70cf-13" value="✅ ACTIVE STATE&#xa;• Users set match scores&#xa;• Winners advance&#xa;• Generate next rounds&#xa;• Until finals complete" style="text;html=1;strokeColor=none;fillColor=none;align=left;verticalAlign=top;whiteSpace=wrap;fontSize=10;" vertex="1" parent="1">
          <mxGeometry x="1030" y="1125" width="200" height="70" as="geometry" />
        </mxCell>
        <mxCell id="hz81aAkB1o-WUuTX70cf-14" value="Finished" style="rounded=1;whiteSpace=wrap;html=1;fillColor=#f8cecc;strokeColor=#b85450;fontSize=16;fontStyle=1;" vertex="1" parent="1">
          <mxGeometry x="750" y="1040" width="200" height="80" as="geometry" />
        </mxCell>
        <mxCell id="hz81aAkB1o-WUuTX70cf-15" value="🏆 COMPLETE&#xa;• Champion declared&#xa;• Final standings shown&#xa;• Tournament immutable" style="text;html=1;strokeColor=none;fillColor=none;align=left;verticalAlign=top;whiteSpace=wrap;fontSize=10;" vertex="1" parent="1">
          <mxGeometry x="750" y="1125" width="200" height="60" as="geometry" />
        </mxCell>
        <mxCell id="hz81aAkB1o-WUuTX70cf-16" value="Cancelled" style="rounded=1;whiteSpace=wrap;html=1;fillColor=#f5f5f5;strokeColor=#666666;fontSize=16;fontStyle=1;" vertex="1" parent="1">
          <mxGeometry x="470" y="1040" width="200" height="80" as="geometry" />
        </mxCell>
        <mxCell id="hz81aAkB1o-WUuTX70cf-17" value="❌ CANCELLED&#xa;• Can cancel from any state&#xa;• Tournament archived" style="text;html=1;strokeColor=none;fillColor=none;align=left;verticalAlign=top;whiteSpace=wrap;fontSize=10;" vertex="1" parent="1">
          <mxGeometry x="470" y="1125" width="200" height="50" as="geometry" />
        </mxCell>
        <mxCell id="hz81aAkB1o-WUuTX70cf-18" value="StartGroups()&#xa;(User Action)" style="endArrow=classic;html=1;rounded=0;exitX=1;exitY=0.5;exitDx=0;exitDy=0;entryX=0;entryY=0.5;entryDx=0;entryDy=0;strokeWidth=2;fontSize=12;fontStyle=1;" edge="1" parent="1" source="hz81aAkB1o-WUuTX70cf-2" target="hz81aAkB1o-WUuTX70cf-4">
          <mxGeometry width="50" height="50" relative="1" as="geometry">
            <mxPoint x="680" y="820" as="sourcePoint" />
            <mxPoint x="730" y="770" as="targetPoint" />
          </mxGeometry>
        </mxCell>
        <mxCell id="hz81aAkB1o-WUuTX70cf-19" value="Seeding Complete&#xa;(Automatic)" style="endArrow=classic;html=1;rounded=0;exitX=1;exitY=0.5;exitDx=0;exitDy=0;entryX=0;entryY=0.5;entryDx=0;entryDy=0;strokeWidth=2;fontSize=12;" edge="1" parent="1" source="hz81aAkB1o-WUuTX70cf-4" target="hz81aAkB1o-WUuTX70cf-6">
          <mxGeometry width="50" height="50" relative="1" as="geometry">
            <mxPoint x="960" y="820" as="sourcePoint" />
            <mxPoint x="1010" y="770" as="targetPoint" />
          </mxGeometry>
        </mxCell>
        <mxCell id="hz81aAkB1o-WUuTX70cf-20" value="All Groups Done&#xa;(Automatic Check)" style="endArrow=classic;html=1;rounded=0;exitX=1;exitY=0.5;exitDx=0;exitDy=0;entryX=0;entryY=0.5;entryDx=0;entryDy=0;strokeWidth=2;fontSize=12;" edge="1" parent="1" source="hz81aAkB1o-WUuTX70cf-6" target="hz81aAkB1o-WUuTX70cf-8">
          <mxGeometry width="50" height="50" relative="1" as="geometry">
            <mxPoint x="1240" y="820" as="sourcePoint" />
            <mxPoint x="1290" y="770" as="targetPoint" />
          </mxGeometry>
        </mxCell>
        <mxCell id="hz81aAkB1o-WUuTX70cf-21" value="StartBracket()&#xa;(User Action)" style="endArrow=classic;html=1;rounded=0;exitX=0.5;exitY=1;exitDx=0;exitDy=0;entryX=0.5;entryY=0;entryDx=0;entryDy=0;strokeWidth=2;fontSize=12;fontStyle=1;" edge="1" parent="1" source="hz81aAkB1o-WUuTX70cf-8" target="hz81aAkB1o-WUuTX70cf-10">
          <mxGeometry width="50" height="50" relative="1" as="geometry">
            <mxPoint x="1410" y="870" as="sourcePoint" />
            <mxPoint x="1410" y="1030" as="targetPoint" />
          </mxGeometry>
        </mxCell>
        <mxCell id="hz81aAkB1o-WUuTX70cf-22" value="Seeding Complete&#xa;(Automatic)" style="endArrow=classic;html=1;rounded=0;exitX=0;exitY=0.5;exitDx=0;exitDy=0;entryX=1;entryY=0.5;entryDx=0;entryDy=0;strokeWidth=2;fontSize=12;" edge="1" parent="1" source="hz81aAkB1o-WUuTX70cf-10" target="hz81aAkB1o-WUuTX70cf-12">
          <mxGeometry width="50" height="50" relative="1" as="geometry">
            <mxPoint x="1300" y="1080" as="sourcePoint" />
            <mxPoint x="1240" y="1080" as="targetPoint" />
          </mxGeometry>
        </mxCell>
        <mxCell id="hz81aAkB1o-WUuTX70cf-23" value="Finals Complete&#xa;(Automatic)" style="endArrow=classic;html=1;rounded=0;exitX=0;exitY=0.5;exitDx=0;exitDy=0;entryX=1;entryY=0.5;entryDx=0;entryDy=0;strokeWidth=2;fontSize=12;" edge="1" parent="1" source="hz81aAkB1o-WUuTX70cf-12" target="hz81aAkB1o-WUuTX70cf-14">
          <mxGeometry width="50" height="50" relative="1" as="geometry">
            <mxPoint x="1020" y="1080" as="sourcePoint" />
            <mxPoint x="960" y="1080" as="targetPoint" />
          </mxGeometry>
        </mxCell>
        <mxCell id="hz81aAkB1o-WUuTX70cf-24" value="Cancel&#xa;(Admin)" style="endArrow=classic;html=1;rounded=0;exitX=0.5;exitY=1;exitDx=0;exitDy=0;entryX=0.5;entryY=0;entryDx=0;entryDy=0;strokeWidth=1;fontSize=10;dashed=1;dashPattern=5 5;" edge="1" parent="1" source="hz81aAkB1o-WUuTX70cf-2" target="hz81aAkB1o-WUuTX70cf-16">
          <mxGeometry width="50" height="50" relative="1" as="geometry">
            <mxPoint x="570" y="870" as="sourcePoint" />
            <mxPoint x="570" y="1030" as="targetPoint" />
          </mxGeometry>
        </mxCell>
        <mxCell id="hz81aAkB1o-WUuTX70cf-25" value="LEGEND" style="shape=note;whiteSpace=wrap;html=1;backgroundOutline=1;fillColor=#f5f5f5;strokeColor=#666666;align=left;verticalAlign=top;size=20;fontStyle=1;fontSize=14;" vertex="1" parent="1">
          <mxGeometry x="470" y="1260" width="520" height="200" as="geometry" />
        </mxCell>
        <mxCell id="hz81aAkB1o-WUuTX70cf-26" value="State Types:&#xa;🟦 Setup - Initial configuration&#xa;🟨 Transition - Backend processing (show loading spinner)&#xa;🟩 Active - Users can set match scores&#xa;🟪 Waiting - Admin decision needed&#xa;🟥 Complete - Tournament finished&#xa;⬜ Cancelled - Tournament cancelled&#xa;&#xa;Transition Types:&#xa;━━━━▶ Bold: User-triggered action (button click)&#xa;━━━━▶ Regular: Automatic state change&#xa;- - - -▶ Dashed: Can cancel from any state" style="text;html=1;strokeColor=none;fillColor=none;align=left;verticalAlign=top;whiteSpace=wrap;fontSize=11;" vertex="1" parent="1">
          <mxGeometry x="480" y="1290" width="500" height="160" as="geometry" />
        </mxCell>
        <mxCell id="hz81aAkB1o-WUuTX70cf-27" value="✅ KEY IMPROVEMENTS" style="shape=note;whiteSpace=wrap;html=1;backgroundOutline=1;fillColor=#e6ffe6;strokeColor=#00CC00;align=left;verticalAlign=top;size=20;fontStyle=1;fontSize=14;" vertex="1" parent="1">
          <mxGeometry x="1030" y="1260" width="480" height="200" as="geometry" />
        </mxCell>
        <mxCell id="hz81aAkB1o-WUuTX70cf-28" value="1. Explicit Transition States&#xa;   • SeedingGroups, SeedingBracket&#xa;   • Can show loading spinners&#xa;   • Prevent user actions during transitions&#xa;&#xa;2. Admin Control&#xa;   • Admin explicitly starts bracket&#xa;   • Can review group results first&#xa;   • No automatic bracket seeding&#xa;&#xa;3. Clear Waiting State&#xa;   • GroupsCompleted = all groups done, waiting for admin&#xa;   • UI can show &#39;Start Bracket&#39; button&#xa;&#xa;4. State Validation&#xa;   • Backend enforces valid transitions&#xa;   • Frontend disables invalid actions" style="text;html=1;strokeColor=none;fillColor=none;align=left;verticalAlign=top;whiteSpace=wrap;fontSize=10;" vertex="1" parent="1">
          <mxGeometry x="1040" y="1290" width="460" height="160" as="geometry" />
        </mxCell>
        <mxCell id="hz81aAkB1o-WUuTX70cf-29" value="USER ACTIONS" style="rounded=0;whiteSpace=wrap;html=1;fillColor=#ffe6cc;strokeColor=#d79b00;fontSize=12;fontStyle=1;" vertex="1" parent="1">
          <mxGeometry x="470" y="1510" width="240" height="30" as="geometry" />
        </mxCell>
        <mxCell id="hz81aAkB1o-WUuTX70cf-30" value="1. StartGroups() - Start group stage&#xa;2. SetMatchScore() - Score matches&#xa;3. StartBracket() - Start bracket stage&#xa;4. Cancel() - Cancel tournament" style="text;html=1;strokeColor=none;fillColor=none;align=left;verticalAlign=top;whiteSpace=wrap;fontSize=10;" vertex="1" parent="1">
          <mxGeometry x="470" y="1545" width="240" height="70" as="geometry" />
        </mxCell>
        <mxCell id="hz81aAkB1o-WUuTX70cf-31" value="AUTOMATIC TRANSITIONS" style="rounded=0;whiteSpace=wrap;html=1;fillColor=#d5e8d4;strokeColor=#82b366;fontSize=12;fontStyle=1;" vertex="1" parent="1">
          <mxGeometry x="750" y="1510" width="280" height="30" as="geometry" />
        </mxCell>
        <mxCell id="hz81aAkB1o-WUuTX70cf-32" value="1. Seeding complete → Next state&#xa;2. All groups done → GroupsCompleted&#xa;3. Finals complete → Declare champion" style="text;html=1;strokeColor=none;fillColor=none;align=left;verticalAlign=top;whiteSpace=wrap;fontSize=10;" vertex="1" parent="1">
          <mxGeometry x="750" y="1545" width="280" height="60" as="geometry" />
        </mxCell>
        <mxCell id="hz81aAkB1o-WUuTX70cf-33" value="⚠️ PREVENTED BY STATE" style="rounded=0;whiteSpace=wrap;html=1;fillColor=#ffe6e6;strokeColor=#FF0000;fontSize=12;fontStyle=1;" vertex="1" parent="1">
          <mxGeometry x="1070" y="1510" width="280" height="30" as="geometry" />
        </mxCell>
        <mxCell id="hz81aAkB1o-WUuTX70cf-34" value="• Cannot add/remove teams after Setup&#xa;• Cannot set scores in transition states&#xa;• Cannot start groups twice&#xa;• Cannot start bracket until groups done" style="text;html=1;strokeColor=none;fillColor=none;align=left;verticalAlign=top;whiteSpace=wrap;fontSize=10;" vertex="1" parent="1">
          <mxGeometry x="1070" y="1545" width="280" height="70" as="geometry" />
        </mxCell>
        <mxCell id="hz81aAkB1o-WUuTX70cf-35" value="New API Endpoints: PUT /tournaments/{id}/start-groups  |  PUT /tournaments/{id}/start-bracket" style="text;html=1;strokeColor=#d79b00;fillColor=#ffe6cc;align=center;verticalAlign=middle;whiteSpace=wrap;rounded=0;fontSize=11;fontStyle=2;" vertex="1" parent="1">
          <mxGeometry x="470" y="1660" width="880" height="30" as="geometry" />
        </mxCell>
      </root>
    </mxGraphModel>
  </diagram>
</mxfile>
